<svg width="1439" height="250" viewBox="0 0 1439 250" fill="none" xmlns="http://www.w3.org/2000/svg">
<ellipse cx="81.8376" cy="256.622" rx="81.8376" ry="114.337" fill="#D9D9D9"/>
<ellipse cx="210.26" cy="169.388" rx="73.0243" ry="120.265" fill="#D9D9D9"/>
<ellipse cx="138.494" cy="194.796" rx="73.0243" ry="120.265" fill="#D9D9D9"/>
<ellipse cx="153.603" cy="293.041" rx="73.0243" ry="120.265" fill="#D9D9D9"/>
<ellipse cx="225.368" cy="294.735" rx="73.0243" ry="120.265" fill="#D9D9D9"/>
<ellipse cx="307.206" cy="120.265" rx="73.0243" ry="120.265" fill="#D9D9D9"/>
<ellipse cx="312.242" cy="279.49" rx="73.0243" ry="120.265" fill="#D9D9D9"/>
<ellipse cx="401.634" cy="188.02" rx="73.0243" ry="120.265" fill="#D9D9D9"/>
<ellipse cx="360.085" cy="240.531" rx="73.0243" ry="120.265" fill="#D9D9D9"/>
<ellipse cx="1046.18" cy="278.884" rx="81.8376" ry="124.255" fill="#D9D9D9"/>
<ellipse cx="1174.6" cy="184.082" rx="73.0243" ry="130.698" fill="#D9D9D9"/>
<ellipse cx="1102.84" cy="211.694" rx="73.0243" ry="130.698" fill="#D9D9D9"/>
<ellipse cx="1117.94" cy="318.461" rx="73.0243" ry="130.698" fill="#D9D9D9"/>
<ellipse cx="1189.71" cy="320.302" rx="73.0243" ry="130.698" fill="#D9D9D9"/>
<ellipse cx="1271.55" cy="130.698" rx="73.0243" ry="130.698" fill="#D9D9D9"/>
<ellipse cx="1276.58" cy="303.735" rx="73.0243" ry="130.698" fill="#D9D9D9"/>
<ellipse cx="1365.98" cy="204.331" rx="73.0243" ry="130.698" fill="#D9D9D9"/>
<ellipse cx="1324.43" cy="261.396" rx="73.0243" ry="130.698" fill="#D9D9D9"/>
<ellipse cx="69.3392" cy="103.346" rx="69.3392" ry="103.346" transform="matrix(0.99935 0.0360468 -0.0281701 0.999603 745.314 143.268)" fill="#D9D9D9"/>
<ellipse cx="61.8719" cy="108.704" rx="61.8719" ry="108.704" transform="matrix(0.99935 0.0360468 -0.0281701 0.999603 813.742 63.7698)" fill="#D9D9D9"/>
<ellipse cx="61.8719" cy="108.704" rx="61.8719" ry="108.704" transform="matrix(0.99935 0.0360468 -0.0281701 0.999603 873.145 40.502)" fill="#D9D9D9"/>
<ellipse cx="61.8719" cy="108.704" rx="61.8719" ry="108.704" transform="matrix(0.99935 0.0360468 -0.0281701 0.999603 813.832 173.265)" fill="#D9D9D9"/>
<ellipse cx="61.8719" cy="108.704" rx="61.8719" ry="108.704" transform="matrix(0.99935 0.0360468 -0.0281701 0.999603 893.759 176.802)" fill="#D9D9D9"/>
<ellipse cx="61.8719" cy="108.704" rx="61.8719" ry="108.704" transform="matrix(0.99935 0.0360468 -0.0281701 0.999603 942.589 83.139)" fill="#D9D9D9"/>
<ellipse cx="84.3415" cy="101.08" rx="84.3415" ry="101.08" transform="matrix(0.99935 0.0360468 -0.0281701 0.999603 375.414 164.006)" fill="#D9D9D9"/>
<ellipse cx="75.2586" cy="106.322" rx="75.2586" ry="106.322" transform="matrix(0.99935 0.0360468 -0.0281701 0.999603 458.098 86.8185)" fill="#D9D9D9"/>
<ellipse cx="75.2586" cy="106.322" rx="75.2586" ry="106.322" transform="matrix(0.99935 0.0360468 -0.0281701 0.999603 569.923 49.8698)" fill="#D9D9D9"/>
<ellipse cx="75.2586" cy="106.322" rx="75.2586" ry="106.322" transform="matrix(0.99935 0.0360468 -0.0281701 0.999603 502.442 193.813)" fill="#D9D9D9"/>
<ellipse cx="75.2586" cy="106.322" rx="75.2586" ry="106.322" transform="matrix(0.99935 0.0360468 -0.0281701 0.999603 622.685 202.588)" fill="#D9D9D9"/>
<ellipse cx="75.2586" cy="106.322" rx="75.2586" ry="106.322" transform="matrix(0.99935 0.0360468 -0.0281701 0.999603 691.682 108.213)" fill="#D9D9D9"/>
</svg>
