<svg width="45" height="45" viewBox="0 0 45 45" fill="none" xmlns="http://www.w3.org/2000/svg">
<path d="M30.45 41.2505C29.9527 41.2505 29.4758 41.053 29.1242 40.7013C28.7726 40.3497 28.575 39.8728 28.575 39.3755V34.5005C28.6333 33.9397 28.5733 33.373 28.3989 32.8369C28.2245 32.3007 27.9395 31.8072 27.5625 31.388C27.3291 31.1348 27.1699 30.8223 27.1024 30.4846C27.0349 30.1469 27.0616 29.7971 27.1798 29.4737C27.2979 29.1502 27.5029 28.8656 27.7722 28.6509C28.0414 28.4362 28.3646 28.2999 28.7063 28.2567C33.2813 27.713 37.5 26.2505 37.5 18.3192C37.5015 16.8381 37.0643 15.3898 36.2438 14.1567C35.4866 13.0217 35.2101 11.6327 35.475 10.2942C35.644 9.42109 35.644 8.52364 35.475 7.65049C34.071 8.1252 32.7491 8.81463 31.5563 9.69424C31.3307 9.85439 31.0726 9.96266 30.8003 10.0113C30.528 10.0599 30.2483 10.0477 29.9813 9.97549C26.5975 9.01935 23.015 9.01935 19.6313 9.97549C19.3642 10.0477 19.0846 10.0599 18.8123 10.0113C18.54 9.96266 18.2818 9.85439 18.0563 9.69424C16.8561 8.80444 15.5202 8.1143 14.1 7.65049C13.9217 8.52272 13.9217 9.42201 14.1 10.2942C14.3458 11.6496 14.0568 13.0475 13.2938 14.1942C12.4768 15.4359 12.0401 16.8891 12.0375 18.3755C12.0375 25.6692 15.5625 27.6192 20.85 28.2942C21.196 28.3372 21.5232 28.4757 21.7948 28.6943C22.0664 28.9129 22.2716 29.2029 22.3875 29.5317C22.4965 29.8508 22.5175 30.1934 22.4482 30.5233C22.3789 30.8533 22.2219 31.1585 21.9938 31.4067C21.6291 31.7966 21.3492 32.2578 21.1717 32.7612C20.9942 33.2646 20.923 33.7994 20.9625 34.3317V39.3755C20.9625 39.8728 20.765 40.3497 20.4133 40.7013C20.0617 41.053 19.5848 41.2505 19.0875 41.2505C18.5902 41.2505 18.1133 41.053 17.7617 40.7013C17.4101 40.3497 17.2125 39.8728 17.2125 39.3755V38.3067C15.3701 38.5186 13.5038 38.2717 11.7799 37.588C10.0559 36.9044 8.52769 35.8051 7.33126 34.388C6.71627 33.7063 5.97841 33.1466 5.15626 32.738C4.91742 32.6764 4.69304 32.5684 4.49594 32.4202C4.29883 32.2719 4.13286 32.0863 4.0075 31.8738C3.88215 31.6614 3.79985 31.4264 3.76532 31.1822C3.73079 30.938 3.7447 30.6893 3.80626 30.4505C3.86782 30.2117 3.97582 29.9873 4.12409 29.7902C4.27236 29.5931 4.458 29.4271 4.67042 29.3017C4.88283 29.1764 5.11786 29.0941 5.36207 29.0596C5.60629 29.025 5.85492 29.0389 6.09376 29.1005C7.5361 29.6259 8.82489 30.5023 9.84376 31.6505C11.7188 33.5255 13.5938 35.1755 17.1563 34.5005C17.0936 33.4938 17.2405 32.4851 17.5875 31.538C13.725 30.563 8.21251 27.788 8.21251 18.413C8.20757 16.1923 8.85997 14.0198 10.0875 12.1692C10.3155 11.8276 10.4028 11.4112 10.3313 11.0067C9.95238 8.98282 10.1673 6.89249 10.95 4.98799C11.0564 4.73405 11.2173 4.50664 11.4215 4.32193C11.6256 4.13722 11.868 3.99973 12.1313 3.91924C12.7688 3.73174 15.0563 3.35674 19.3875 6.16924C22.8937 5.3255 26.5501 5.3255 30.0563 6.16924C34.3875 3.35674 36.675 3.71299 37.2938 3.91924C37.557 3.99973 37.7994 4.13722 38.0035 4.32193C38.2077 4.50664 38.3687 4.73405 38.475 4.98799C39.2593 6.89868 39.4742 8.99544 39.0938 11.0255C39.0554 11.2084 39.0539 11.3971 39.0893 11.5806C39.1247 11.7641 39.1963 11.9387 39.3 12.0942C40.5311 13.9501 41.1837 16.1297 41.175 18.3567C41.175 27.863 35.7 30.6192 31.8 31.4817C32.1436 32.4879 32.2838 33.5522 32.2125 34.613V39.3755C32.2134 39.8539 32.0313 40.3145 31.7037 40.6631C31.376 41.0117 30.9275 41.2218 30.45 41.2505Z" fill="#231F20"/>
</svg>
