<svg width="45" height="45" viewBox="0 0 45 45" fill="none" xmlns="http://www.w3.org/2000/svg">
<path d="M37.5 41.2501H34.3688C33.3742 41.2501 32.4204 40.855 31.7171 40.1517C31.0138 39.4485 30.6188 38.4946 30.6188 37.5001V27.4313C30.6355 27.0364 30.5161 26.6478 30.2806 26.3304C30.0451 26.0129 29.7078 25.786 29.325 25.6876C29.1023 25.6537 28.8749 25.6679 28.6582 25.7294C28.4415 25.7908 28.2405 25.8981 28.0688 26.0438C27.892 26.1938 27.7501 26.3806 27.6529 26.5911C27.5558 26.8016 27.5057 27.0307 27.5063 27.2626V37.5001C27.5063 38.4946 27.1112 39.4485 26.4079 40.1517C25.7046 40.855 24.7508 41.2501 23.7563 41.2501H20.625C19.6304 41.2501 18.6766 40.855 17.9734 40.1517C17.2701 39.4485 16.875 38.4946 16.875 37.5001V27.2626C16.875 25.6621 17.1902 24.0773 17.8027 22.5986C18.4152 21.12 19.3129 19.7764 20.4446 18.6447C21.5764 17.513 22.9199 16.6153 24.3985 16.0028C25.8772 15.3903 27.462 15.0751 29.0625 15.0751C30.663 15.0751 32.2478 15.3903 33.7265 16.0028C35.2051 16.6153 36.5486 17.513 37.6804 18.6447C38.8121 19.7764 39.7098 21.12 40.3223 22.5986C40.9348 24.0773 41.25 25.6621 41.25 27.2626V37.5001C41.25 38.4946 40.8549 39.4485 40.1517 40.1517C39.4484 40.855 38.4946 41.2501 37.5 41.2501ZM29.0625 21.9188C29.356 21.9003 29.6503 21.9003 29.9438 21.9188C31.2026 22.161 32.3359 22.8386 33.1451 23.8329C33.9542 24.8271 34.3874 26.0746 34.3688 27.3563V37.5001H37.5V27.2626C37.5 25.0248 36.6111 22.8787 35.0287 21.2964C33.4464 19.714 31.3003 18.8251 29.0625 18.8251C26.8247 18.8251 24.6786 19.714 23.0963 21.2964C21.5139 22.8787 20.625 25.0248 20.625 27.2626V37.5001H23.7563V27.2626C23.7562 25.8518 24.3141 24.4982 25.3081 23.4972C26.3022 22.4961 27.6518 21.9287 29.0625 21.9188Z" fill="#231F20"/>
<path d="M11.25 41.2499H7.5C6.50544 41.2499 5.55161 40.8548 4.84835 40.1515C4.14509 39.4483 3.75 38.4944 3.75 37.4999V18.7499C3.75 17.7553 4.14509 16.8015 4.84835 16.0982C5.55161 15.395 6.50544 14.9999 7.5 14.9999H11.25C12.2446 14.9999 13.1984 15.395 13.9017 16.0982C14.6049 16.8015 15 17.7553 15 18.7499V37.4999C15 38.4944 14.6049 39.4483 13.9017 40.1515C13.1984 40.8548 12.2446 41.2499 11.25 41.2499ZM7.5 18.7499V37.4999H11.25V18.7499H7.5Z" fill="#231F20"/>
<path d="M9.37506 13.125C8.26254 13.125 7.17501 12.7951 6.24998 12.177C5.32495 11.5589 4.60398 10.6804 4.17824 9.6526C3.7525 8.62476 3.6411 7.49376 3.85815 6.40262C4.07519 5.31148 4.61092 4.3092 5.39759 3.52253C6.18426 2.73586 7.18654 2.20013 8.27768 1.98309C9.36882 1.76604 10.4998 1.87744 11.5277 2.30318C12.5555 2.72892 13.434 3.44989 14.0521 4.37492C14.6702 5.29995 15.0001 6.38748 15.0001 7.5C15.0001 8.99185 14.4074 10.4226 13.3525 11.4775C12.2976 12.5324 10.8669 13.125 9.37506 13.125ZM9.37506 5.625C9.00422 5.625 8.64171 5.73497 8.33337 5.941C8.02503 6.14702 7.7847 6.43986 7.64279 6.78247C7.50087 7.12508 7.46374 7.50208 7.53609 7.8658C7.60844 8.22951 7.78701 8.5636 8.04924 8.82583C8.31146 9.08805 8.64555 9.26663 9.00927 9.33897C9.37298 9.41132 9.74998 9.37419 10.0926 9.23228C10.4352 9.09036 10.728 8.85004 10.9341 8.5417C11.1401 8.23335 11.2501 7.87084 11.2501 7.5C11.2501 7.00272 11.0525 6.52581 10.7009 6.17418C10.3493 5.82255 9.87234 5.625 9.37506 5.625Z" fill="#231F20"/>
</svg>
