<svg width="64" height="66" viewBox="0 0 64 66" fill="none" xmlns="http://www.w3.org/2000/svg">
<path d="M11.403 56H2.583C4.641 53.9 5.67 50.834 5.67 46.802V21.098C5.67 17.066 4.641 14 2.583 11.9H11.403C9.345 14 8.316 17.066 8.316 21.098V46.802C8.316 50.834 9.345 53.9 11.403 56Z" fill="black"/>
<path d="M33.9285 56H15.2175C17.2755 53.9 18.3045 50.834 18.3045 46.802V21.098C18.3045 17.066 17.2755 14 15.2175 11.9H31.0305C33.6765 11.9 35.9865 12.152 37.9605 12.656C39.9765 13.16 41.5305 14.063 42.6225 15.365C43.7565 16.667 44.3235 18.515 44.3235 20.909C44.3235 23.093 43.6305 24.983 42.2445 26.579C40.9005 28.175 39.2205 29.603 37.2045 30.863C40.4385 31.241 43.0845 32.417 45.1425 34.391C47.2005 36.323 48.2295 39.305 48.2295 43.337C48.2295 46.445 47.5785 48.944 46.2765 50.834C45.0165 52.682 43.3155 54.005 41.1735 54.803C39.0315 55.601 36.6165 56 33.9285 56ZM33.9285 55.37C35.7345 55.37 37.4985 54.929 39.2205 54.047C40.9425 53.165 42.3705 51.842 43.5045 50.078C44.6805 48.314 45.2685 46.067 45.2685 43.337C45.2685 40.985 44.8485 38.99 44.0085 37.352C43.1685 35.672 42.0765 34.349 40.7325 33.383C39.3885 32.375 37.9185 31.703 36.3225 31.367C34.9365 32.207 33.5505 33.005 32.1645 33.761C30.5265 34.643 29.0145 35.546 27.6285 36.47C26.2425 37.352 25.1085 38.297 24.2265 39.305C23.3445 40.313 22.9035 41.447 22.9035 42.707C22.9035 46.025 24.4785 47.789 27.6285 47.999C29.8545 47.999 31.3455 47.012 32.1015 45.038L31.6605 45.164C31.3665 45.164 31.0935 45.038 30.8415 44.786C30.5895 44.534 30.4635 44.24 30.4635 43.904C30.4635 43.568 30.5895 43.295 30.8415 43.085C31.0935 42.833 31.3665 42.707 31.6605 42.707C31.9965 42.707 32.2905 42.833 32.5425 43.085C32.7945 43.295 32.9205 43.568 32.9205 43.904C32.8785 45.29 32.3535 46.424 31.3455 47.306C30.3375 48.188 29.0985 48.629 27.6285 48.629C24.2265 48.629 22.4415 46.655 22.2735 42.707C22.2735 40.943 22.7565 39.389 23.7225 38.045C24.6885 36.701 25.9065 35.504 27.3765 34.454C28.8885 33.362 30.4425 32.333 32.0385 31.367C33.6765 30.401 35.1885 29.414 36.5745 28.406C37.9605 27.398 39.0945 26.285 39.9765 25.067C40.9005 23.849 41.3625 22.463 41.3625 20.909C41.3625 18.809 40.8795 17.15 39.9135 15.932C38.9475 14.714 37.6665 13.853 36.0705 13.349C34.5165 12.803 32.8365 12.53 31.0305 12.53H20.9505V55.37H33.9285Z" fill="black"/>
</svg>
