<svg width="509" height="320" viewBox="0 0 509 320" fill="none" xmlns="http://www.w3.org/2000/svg">
<ellipse cx="410.816" cy="169.41" rx="81.0345" ry="64.7449" transform="rotate(-167.871 410.816 169.41)" fill="#D9BBEB"/>
<ellipse cx="276.113" cy="190.986" rx="72.3077" ry="68.1021" transform="rotate(-167.871 276.113 190.986)" fill="#D9BBEB"/>
<ellipse cx="348.611" cy="191.851" rx="72.3077" ry="68.1021" transform="rotate(-167.871 348.611 191.851)" fill="#D9BBEB"/>
<ellipse cx="402.611" cy="201.851" rx="72.3077" ry="68.1021" transform="rotate(-167.871 402.611 201.851)" fill="#D9BBEB"/>
<ellipse cx="345.674" cy="134.317" rx="72.3077" ry="68.1021" transform="rotate(-167.871 345.674 134.317)" fill="#D9BBEB"/>
<ellipse cx="276.401" cy="118.448" rx="72.3077" ry="68.1021" transform="rotate(-167.871 276.401 118.448)" fill="#D9BBEB"/>
<ellipse cx="176.417" cy="198.011" rx="72.3077" ry="68.1021" transform="rotate(-167.871 176.417 198.011)" fill="#D9BBEB"/>
<ellipse cx="190.486" cy="108.813" rx="72.3077" ry="68.1021" transform="rotate(-167.871 190.486 108.813)" fill="#D9BBEB"/>
<ellipse cx="93.0646" cy="140.854" rx="72.3077" ry="68.1021" transform="rotate(-167.871 93.0646 140.854)" fill="#D9BBEB"/>
<ellipse cx="139.535" cy="120.428" rx="72.3077" ry="68.1021" transform="rotate(-167.871 139.535 120.428)" fill="#D9BBEB"/>
</svg>
