<svg width="1440" height="375" viewBox="0 0 1440 375" fill="none" xmlns="http://www.w3.org/2000/svg">
<ellipse cx="730.972" cy="295.468" rx="78.497" ry="96.6033" fill="#D9BBEB"/>
<ellipse cx="854.152" cy="221.763" rx="70.0435" ry="101.612" fill="#D9BBEB"/>
<ellipse cx="785.317" cy="243.23" rx="70.0435" ry="101.612" fill="#D9BBEB"/>
<ellipse cx="799.808" cy="326.238" rx="70.0435" ry="101.612" fill="#D9BBEB"/>
<ellipse cx="868.644" cy="327.669" rx="70.0435" ry="101.612" fill="#D9BBEB"/>
<ellipse cx="947.141" cy="180.259" rx="70.0435" ry="101.612" fill="#D9BBEB"/>
<ellipse cx="951.972" cy="314.788" rx="70.0435" ry="101.612" fill="#D9BBEB"/>
<ellipse cx="1037.71" cy="237.506" rx="70.0435" ry="101.612" fill="#D9BBEB"/>
<ellipse cx="997.862" cy="281.872" rx="70.0435" ry="101.612" fill="#D9BBEB"/>
<ellipse cx="77.4005" cy="88.1206" rx="77.4005" ry="88.1206" transform="matrix(-0.971868 -0.235526 0.18722 -0.982318 758.209 372.278)" fill="#D9BBEB"/>
<ellipse cx="69.0651" cy="92.6898" rx="69.0651" ry="92.6898" transform="matrix(-0.971868 -0.235526 0.18722 -0.982318 618.623 412.24)" fill="#D9BBEB"/>
<ellipse cx="69.0651" cy="92.6898" rx="69.0651" ry="92.6898" transform="matrix(-0.971868 -0.235526 0.18722 -0.982318 688.254 408.99)" fill="#D9BBEB"/>
<ellipse cx="69.0651" cy="92.6898" rx="69.0651" ry="92.6898" transform="matrix(-0.971868 -0.235526 0.18722 -0.982318 688.543 331.245)" fill="#D9BBEB"/>
<ellipse cx="69.0651" cy="92.6898" rx="69.0651" ry="92.6898" transform="matrix(-0.971868 -0.235526 0.18722 -0.982318 622.823 313.977)" fill="#D9BBEB"/>
<ellipse cx="69.0651" cy="92.6898" rx="69.0651" ry="92.6898" transform="matrix(-0.971868 -0.235526 0.18722 -0.982318 522.425 427.835)" fill="#D9BBEB"/>
<ellipse cx="69.0651" cy="92.6898" rx="69.0651" ry="92.6898" transform="matrix(-0.971868 -0.235526 0.18722 -0.982318 540.771 306.167)" fill="#D9BBEB"/>
<ellipse cx="69.0651" cy="92.6898" rx="69.0651" ry="92.6898" transform="matrix(-0.971868 -0.235526 0.18722 -0.982318 445.406 355.504)" fill="#D9BBEB"/>
<ellipse cx="69.0651" cy="92.6898" rx="69.0651" ry="92.6898" transform="matrix(-0.971868 -0.235526 0.18722 -0.982318 491.173 325.005)" fill="#D9BBEB"/>
<ellipse cx="74.2105" cy="125.987" rx="74.2105" ry="125.987" transform="matrix(0.999354 0.0359286 -0.0282628 0.999601 7.12151 155.126)" fill="#D9BBEB"/>
<ellipse cx="66.3832" cy="104.845" rx="66.3832" ry="104.845" transform="matrix(0.999354 0.0359286 -0.0282628 0.999601 79.9282 78.688)" fill="#D9BBEB"/>
<ellipse cx="66.3832" cy="104.845" rx="66.3832" ry="104.845" transform="matrix(0.999354 0.0359286 -0.0282628 0.999601 178.759 19.1475)" fill="#D9BBEB"/>
<ellipse cx="66.3832" cy="104.845" rx="66.3832" ry="104.845" transform="matrix(0.999354 0.0359286 -0.0282628 0.999601 118.724 184.014)" fill="#D9BBEB"/>
<ellipse cx="66.3832" cy="104.845" rx="66.3832" ry="104.845" transform="matrix(0.999354 0.0359286 -0.0282628 0.999601 224.774 192.203)" fill="#D9BBEB"/>
<ellipse cx="66.3832" cy="104.845" rx="66.3832" ry="104.845" transform="matrix(0.999354 0.0359286 -0.0282628 0.999601 285.927 98.8833)" fill="#D9BBEB"/>
<ellipse cx="75.9896" cy="118.986" rx="75.9896" ry="118.986" transform="matrix(0.999354 0.0359286 -0.0282628 0.999601 1087.43 123.501)" fill="#D9BBEB"/>
<ellipse cx="67.8061" cy="125.155" rx="67.8061" ry="125.155" transform="matrix(0.999354 0.0359286 -0.0282628 0.999601 1162.56 31.8317)" fill="#D9BBEB"/>
<ellipse cx="67.8061" cy="125.155" rx="67.8061" ry="125.155" transform="matrix(0.999354 0.0359286 -0.0282628 0.999601 1227.71 4.9176)" fill="#D9BBEB"/>
<ellipse cx="67.8061" cy="125.155" rx="67.8061" ry="125.155" transform="matrix(0.999354 0.0359286 -0.0282628 0.999601 1162.48 157.891)" fill="#D9BBEB"/>
<ellipse cx="67.8061" cy="125.155" rx="67.8061" ry="125.155" transform="matrix(0.999354 0.0359286 -0.0282628 0.999601 1250.07 161.792)" fill="#D9BBEB"/>
<ellipse cx="67.8061" cy="125.155" rx="67.8061" ry="125.155" transform="matrix(0.999354 0.0359286 -0.0282628 0.999601 1303.74 53.8569)" fill="#D9BBEB"/>
</svg>
